<svg id="Capa_1" enable-background="new 0 0 516.29 516.29" height="512" viewBox="0 0 516.29 516.29" width="512" xmlns="http://www.w3.org/2000/svg"><g><path d="m513.145 43.11v431.2c-5.179 1.48-109.589 31.323-126.05 36.02-.1-.016-254.7-39.81-254.8-39.81.1 0 8.636-3.444-129.15 45.77v-431.86l125.55-44.84 28.33 4.43-2.32 14.82c139.45 21.54 72.35 11.18 232.34 35.9l-4.12-14.42z" fill="#00e6ef"/><path d="m513.145 43.11v431.2c-130.975 37.43-106.601 30.465-126.05 36.02-26.871-4.198-104.644-16.352-128.95-20.15v-415.36l128.9 19.92-4.12-14.42z" fill="#00c6cd"/><path d="m145.145 219.93v252.6l-13.55-2.12-16.45 5.88v-256.36z" fill="#00c6cd"/><g><g><path d="m401.145 144.68v361.64c-5.61 1.59-6.69 1.91-14.05 4.01-5.43-.85-10.75-1.68-15.95-2.49v-363.16z" fill="#00b5bc"/></g></g><path d="m417.145 159c0 74.101-106.612 192.664-159 245.25-52.708-52.906-159-170.869-159-245.25 0-87.67 71.33-159 159-159s159 71.33 159 159z" fill="#eef4ff"/><path d="m417.145 159c0 74.101-106.612 192.664-159 245.25v-404.25c87.67 0 159 71.33 159 159z" fill="#d9e6fc"/><path d="m353.145 145.39c0 16.32-6.41 31.66-18.06 43.19l-76.78 75.61c-.248-.249-29.421-28.858-77.05-75.57-24.423-24.153-23.878-62.848-.05-86.41 21.354-21.134 53.707-23.018 76.94-7.96 40.636-26.337 95 2.725 95 51.14z" fill="#f96192"/><path d="m353.145 145.39c0 16.32-6.41 31.66-18.06 43.19l-76.78 75.61c-.249-.249-.16 7.896-.16-169.94 40.636-26.337 95 2.725 95 51.14z" fill="#fe3d80"/></g></svg>