<svg id="Capa_1" enable-background="new 0 0 511 511" height="512" viewBox="0 0 511 511" width="512" xmlns="http://www.w3.org/2000/svg"><g><path d="m510.5 230.76v280.24h-510v-79l128.34-287h309.66z" fill="#00c6cd"/><path d="m510.5 230.76v280.24h-255v-366h183z" fill="#00b5bc"/><path d="m510.5 145v85.76l-175 201.24h-335v-287z" fill="#eef4ff"/><path d="m510.5 145v85.76l-175 201.24h-80v-287z" fill="#d9e6fc"/><path d="m495.5 248-160 184v-184z" fill="#bed9fd"/><path d="m.5 49h510v126h-510z" fill="#00e6ef"/><path d="m255.5 49h255v126h-255z" fill="#00c6cd"/><path d="m184.5 0h30v112h-30z" fill="#eef4ff"/><path d="m72.5 0h30v112h-30z" fill="#eef4ff"/><path d="m296.5 0h30v112h-30z" fill="#d9e6fc"/><path d="m408.5 0h30v112h-30z" fill="#d9e6fc"/><path d="m209.443 224.819c-20.403-20.4-51.209-22.256-73.421-8.036-22.22-14.227-53.026-12.357-73.422 8.037-22.993 22.994-22.993 60.408.048 83.449l73.53 72.871 73.265-72.919c22.994-22.992 22.994-60.407 0-83.402z" fill="#f87eb8"/></g></svg>