<?xml version="1.0"?>
<svg xmlns="http://www.w3.org/2000/svg" xmlns:xlink="http://www.w3.org/1999/xlink" xmlns:svgjs="http://svgjs.com/svgjs" version="1.1" width="512" height="512" x="0" y="0" viewBox="0 0 512 512" style="enable-background:new 0 0 512 512" xml:space="preserve" class=""><g><g xmlns="http://www.w3.org/2000/svg"><g><path d="m221.015 403.189h-178.425v-232.574c0-13.261 10.75-24.011 24.011-24.011h130.403c13.261 0 24.011 10.75 24.011 24.011z" fill="#b3dafe" data-original="#b3dafe" style=""/><path d="m197.004 146.604h-24.741c13.261 0 24.011 10.75 24.011 24.011v232.573h24.741v-232.573c0-13.261-10.75-24.011-24.011-24.011z" fill="#8ac9fe" data-original="#8ac9fe" style=""/><path d="m158.56 99.747h-53.515c-9.766 0-17.684 7.917-17.684 17.684v29.173h88.882v-29.173c0-9.767-7.917-17.684-17.683-17.684z" fill="#91deb6" data-original="#91deb6" style=""/><path d="m158.56 99.747h-24.741c9.766 0 17.684 7.917 17.684 17.684v29.173h24.741v-29.173c-.001-9.767-7.918-17.684-17.684-17.684z" fill="#6ed5a1" data-original="#6ed5a1" style=""/><path d="m246.253 48.275h-40.343c-5.047 0-9.995 1.401-14.293 4.046l-6.675 4.108c-4.298 2.645-9.246 4.046-14.293 4.046h-69.418c-8.564 0-15.507-6.943-15.507-15.507v-16.314c0-8.564 6.943-15.507 15.507-15.507h145.022c8.564 0 15.507 6.943 15.507 15.507v4.114c0 8.564-6.943 15.507-15.507 15.507z" fill="#b0e7c9" data-original="#b0e7c9" style="" class=""/><g fill="#91deb6"><path d="m166.876 52.321-6.675 4.108c-4.298 2.645-9.246 4.046-14.293 4.046h24.741c5.047 0 9.995-1.401 14.293-4.046l6.674-4.108c4.298-2.646 9.246-4.046 14.293-4.046h-24.741c-5.047 0-9.994 1.401-14.292 4.046z" fill="#91deb6" data-original="#91deb6" style=""/><path d="m246.253 13.148h-24.741c8.564 0 15.507 6.943 15.507 15.507v4.114c0 8.564-6.942 15.507-15.507 15.507h24.741c8.564 0 15.507-6.943 15.507-15.507v-4.114c0-8.565-6.943-15.507-15.507-15.507z" fill="#91deb6" data-original="#91deb6" style=""/></g><path d="m403.994 243.284h-13.68c-10.455 0-18.931-8.476-18.931-18.931v-13.68c0-10.455 8.476-18.931 18.931-18.931h13.68c10.455 0 18.931 8.476 18.931 18.931v13.68c0 10.456-8.476 18.931-18.931 18.931z" fill="#d8ecfe" data-original="#d8ecfe" style="" class=""/><path d="m403.994 191.742h-13.68c-2.117 0-4.145.362-6.045 1.003 7.487 2.525 12.886 9.589 12.886 17.928v13.68c0 8.339-5.398 15.403-12.886 17.928 1.901.641 3.929 1.003 6.045 1.003h13.68c10.455 0 18.931-8.476 18.931-18.931v-13.68c0-10.456-8.476-18.931-18.931-18.931z" fill="#b3dafe" data-original="#b3dafe" style=""/><path d="m385.71 44.31h-45.141c-12.777 0-23.134 10.357-23.134 23.134v32.697c0 8.774-7.113 15.887-15.887 15.887-8.774 0-15.887 7.113-15.887 15.887v19.769c0 8.774 7.113 15.887 15.887 15.887h19.769c8.774 0 15.887-7.113 15.887-15.887v-.078c0-8.774 7.113-15.887 15.887-15.887h32.619c12.777 0 23.134-10.357 23.134-23.134v-45.141c0-12.776-10.358-23.134-23.134-23.134z" fill="#d8ecfe" data-original="#d8ecfe" style="" class=""/><g fill="#b3dafe"><path d="m312.462 151.606v.078c0 7.926-5.811 14.477-13.401 15.673.812.128 1.638.214 2.486.214h19.768c8.774 0 15.887-7.113 15.887-15.887v-.078c0-8.774 7.113-15.887 15.887-15.887h-24.741c-8.773 0-15.886 7.113-15.886 15.887z" fill="#b3dafe" data-original="#b3dafe" style=""/><path d="m385.71 44.31h-24.741c12.776 0 23.134 10.357 23.134 23.134v45.141c0 12.777-10.358 23.134-23.134 23.134h24.741c12.777 0 23.134-10.357 23.134-23.134v-45.141c0-12.776-10.358-23.134-23.134-23.134z" fill="#b3dafe" data-original="#b3dafe" style=""/></g><path d="m274.288 367.721 156.606-83.754c11.737-6.173 26.245-2.378 33.456 8.752 8.037 12.404 3.95 29.017-8.923 36.277l-126.021 71.076z" fill="#ffcebf" data-original="#ffcebf" style=""/><path d="m464.35 292.72c-7.211-11.13-21.719-14.925-33.456-8.752l-.44.235c3.603 1.981 6.777 4.847 9.155 8.517 8.037 12.404 3.95 29.017-8.923 36.277l-113.403 63.959 12.124 7.116 126.021-71.076c12.872-7.259 16.959-23.872 8.922-36.276z" fill="#f0bdb1" data-original="#f0bdb1" style=""/><path d="m490.56 353.193-235.966 116.292c-18.895 9.305-39.585 14.406-60.647 14.943l-134.957 3.404c-17.034.438-33.849 3.908-49.656 10.279l-2.08.832v-126.932l10.652-4.401c7.4-3.065 15.304-4.729 23.306-4.915l40.132-.93 206.222-.131c21.522-.011 42.891-3.613 63.231-10.663l122.827-42.53c2.277-.679 4.587-1.007 6.864-1.007 9.491 0 18.391 5.671 22.179 14.855 4.894 11.889-.448 25.507-12.107 30.904z" fill="#f9d0b4" data-original="#ffdfcf" style="" class=""/><path d="m502.667 322.289c-3.788-9.185-12.687-14.855-22.179-14.855-2.277 0-4.587.328-6.864 1.007l-6.079 2.105c4.534 2.561 8.259 6.6 10.38 11.743 4.893 11.889-.449 25.507-12.108 30.904l-235.964 116.292c-18.895 9.305-39.585 14.406-60.647 14.943l-134.957 3.405c-9.101.234-18.139 1.342-26.995 3.288v7.824l2.08-.832c15.808-6.371 32.622-9.841 49.656-10.279l134.956-3.405c21.062-.536 41.753-5.638 60.647-14.943l235.967-116.293c11.659-5.397 17.001-19.015 12.107-30.904z" fill="#ffcebf" data-original="#ffcebf" style=""/><path d="m116.506 415.805 154.667-96.862c9.547-5.979 13.227-18.079 8.626-28.361-4.905-10.96-17.53-16.165-28.734-11.845l-94.909 36.592c-4.055 1.564-8.328 2.493-12.666 2.755l-50.183 3.031c-20.901 1.262-40.043 12.121-51.85 29.413-5.107 7.479-12.401 13.019-20.718 15.987-1.315.469-6.145 26.008-6.145 26.008z" fill="#f9d0b4" data-original="#ffdfcf" style="" class=""/><path d="m279.799 290.582c-4.905-10.96-17.53-16.165-28.734-11.845l-4.799 1.85c3.747 2.301 6.868 5.697 8.791 9.995 4.601 10.282.921 22.382-8.626 28.361l-113.305 70.959 18.128 4.142 119.918-75.1c9.548-5.98 13.228-18.081 8.627-28.362z" fill="#ffcebf" data-original="#ffcebf" style=""/></g><g><path d="m7.257 379.506c.954 0 1.924-.183 2.86-.57l10.658-4.399c9.516-2.997 20.931-10.509 26.877-19.779 10.423-15.263 27.659-25.04 46.107-26.154 12.078-1.373 54.276-1.379 65.096-6.274l94.909-36.592c17.584-6.007 27.897 17.216 13.426 26.846l-119.918 75.101c-3.512 2.2-4.576 6.83-2.377 10.342 1.941 2.234 5.163 5.056 10.342 2.377l119.918-75.1c31.258-21.882 5.504-65.448-26.79-53.567l-19.851 7.653v-108.777c0-17.377-14.137-31.514-31.514-31.514h-13.253v-21.668c0-13.888-11.299-25.187-25.187-25.187h-19.254v-24.265h31.343c13.38 1.195 22.131-11.142 35.26-12.2h40.344c12.688 0 23.01-10.323 23.01-23.01v-4.114c0-12.688-10.322-23.01-23.01-23.01h-145.022c-12.688 0-23.01 10.322-23.01 23.01v16.315c0 12.688 10.322 23.01 23.01 23.01h23.068v24.265h-19.255c-13.888 0-25.187 11.299-25.187 25.187v21.668h-13.256c-17.377 0-31.514 14.137-31.514 31.514v140.406c0 4.144 3.359 7.503 7.503 7.503s7.503-3.359 7.503-7.503v-140.407c0-9.102 7.406-16.507 16.507-16.507h130.4c9.102 0 16.507 7.405 16.507 16.507v114.561l-60.052 23.153c-6.087 3.434-53.203 4.345-60.602 5.297-23.045 1.392-44.575 13.605-57.595 32.672-4.396 6.556-11.822 11.676-20.206 14.368l-10.662 4.401c-6.468 2.644-6.015 13.86 2.867 14.441zm85.971-334.537v-16.315c0-4.413 3.59-8.003 8.004-8.003h145.022c4.413 0 8.004 3.59 8.004 8.003v4.114c0 4.413-3.59 8.004-8.004 8.004h-40.344c-13.38-1.195-22.131 11.142-35.26 12.2h-69.418c-4.414 0-8.004-3.59-8.004-8.003zm1.636 72.462c0-5.613 4.567-10.18 10.18-10.18h53.516c5.614 0 10.18 4.567 10.18 10.18v21.668h-73.876z" fill="#000000" data-original="#000000" style="" class=""/><path d="m509.604 319.428c-5.516-12.979-19.336-21.549-34.241-19.06-3.647-21.233-28.928-33.514-48.006-23.022l-143.582 76.786-30.21.025c-4.144.003-7.5 3.366-7.498 7.51.003 4.142 3.362 7.497 7.503 7.497 32.445.479 68.631.641 99.692-11.104l122.648-42.471c20-4.992 29.109 22.561 11.331 30.872l-235.952 116.29c-18.069 8.893-37.426 13.662-57.534 14.174l-134.955 3.405c-17.99.451-35.577 4.091-52.256 10.814-10.833 2.681-7.665 20.007 5.592 13.926 15.025-6.055 30.851-9.331 47.041-9.737l134.959-3.405c22.292-.568 43.751-5.854 63.783-15.714l235.878-116.253c15.298-7.135 22.241-24.918 15.807-40.533zm-161.253 24.453c-8.805 3.052-17.785 5.423-26.888 7.115l112.927-60.392c10.674-5.449 24.974.736 26.492 14.309z" fill="#000000" data-original="#000000" style="" class=""/><path d="m131.803 180.444c-4.144 0-7.503 3.359-7.503 7.503v15.078h-15.08c-4.144 0-7.503 3.359-7.503 7.503s3.359 7.503 7.503 7.503h15.079v15.079c0 4.144 3.359 7.503 7.503 7.503s7.503-3.359 7.503-7.503v-15.079h15.078c4.144 0 7.503-3.359 7.503-7.503s-3.359-7.503-7.503-7.503h-15.078v-15.078c.001-4.144-3.358-7.503-7.502-7.503z" fill="#000000" data-original="#000000" style="" class=""/><path d="m390.314 184.238c-14.576 0-26.435 11.858-26.435 26.435v13.68c0 14.576 11.859 26.435 26.435 26.435h13.68c14.576 0 26.435-11.858 26.435-26.435v-13.68c0-14.576-11.859-26.435-26.435-26.435zm25.108 26.435v13.68c0 6.302-5.126 11.428-11.428 11.428h-13.68c-6.302 0-11.428-5.126-11.428-11.428v-13.68c0-6.302 5.126-11.428 11.428-11.428h13.68c6.301 0 11.428 5.126 11.428 11.428z" fill="#000000" data-original="#000000" style="" class=""/><path d="m301.548 175.074h19.769c12.897 0 23.391-10.493 23.391-23.468 0-4.623 3.76-8.384 8.384-8.384h32.618c16.893 0 30.638-13.744 30.638-30.637v-9.837c0-4.144-3.359-7.503-7.503-7.503s-7.503 3.359-7.503 7.503v9.837c0 8.619-7.012 15.631-15.631 15.631h-32.618c-12.897 0-23.391 10.493-23.391 23.468 0 4.623-3.76 8.384-8.384 8.384h-19.769c-4.623 0-8.384-3.761-8.384-8.384v-19.769c0-4.623 3.76-8.384 8.384-8.384 12.897 0 23.391-10.493 23.391-23.39v-32.697c0-8.619 7.012-15.631 15.631-15.631h45.14c8.619 0 15.631 7.012 15.631 15.631 0 4.144 3.359 7.503 7.503 7.503s7.503-3.359 7.503-7.503c0-16.893-13.745-30.637-30.638-30.637h-45.14c-16.893 0-30.638 13.744-30.638 30.637v32.697c0 4.623-3.76 8.383-8.384 8.383-12.897 0-23.391 10.493-23.391 23.39v19.769c0 12.898 10.493 23.391 23.391 23.391z" fill="#000000" data-original="#000000" style="" class=""/><path d="m303.759 217.805c0 4.237 3.435 7.673 7.673 7.673 4.237 0 7.672-3.435 7.672-7.673s-3.435-7.673-7.672-7.673c-4.237.001-7.673 3.436-7.673 7.673z" fill="#000000" data-original="#000000" style="" class=""/></g></g><script/></g></svg>
