<svg id="Capa_1" enable-background="new 0 0 508.213 508.213" height="512" viewBox="0 0 508.213 508.213" width="512" xmlns="http://www.w3.org/2000/svg"><g><path d="m226.78 0-91.989 91.989 246.825 316.042 126.597-126.597z" fill="#00b5bc"/><path d="m0 78.213h398v430h-398z" fill="#00e6ef"/><path d="m199 78.213h199v430h-199z" fill="#00c6cd"/><path d="m64 138.593h270v305.62h-270z" fill="#eef4ff"/><path d="m199 138.593h135v305.62h-135z" fill="#d9e6fc"/><path d="m256.95 305.273c-61.769 61.478-57.017 57.407-57.95 56.49l-56.95-56.44c-18.69-18.69-18.69-49.02-.05-67.67 15.152-15.135 38.438-18.44 57.48-7.75 7.13-4.08 15.23-6.24 23.67-6.24 42.245 0 63.984 51.426 33.8 81.61z" fill="#f96192"/><path d="m256.95 305.273c-61.769 61.478-57.017 57.407-57.95 56.49 0-142.495-.236-132.262.48-131.86 17.737-10.15 41.543-8.177 57.47 7.75 18.64 18.65 18.64 48.98 0 67.62z" fill="#fe3d80"/></g></svg>