<svg id="Capa_1" enable-background="new 0 0 510.006 510.006" height="512" viewBox="0 0 510.006 510.006" width="512" xmlns="http://www.w3.org/2000/svg"><g><path d="m509.883 458.536v51.47h-248.84v-51.47c0-60.56 55.82-109.83 124.42-109.83 68.61 0 124.42 49.27 124.42 109.83z" fill="#eef4ff"/><path d="m509.883 458.536v51.47h-124.42v-161.3c68.61 0 124.42 49.27 124.42 109.83z" fill="#d9e6fc"/><path d="m473.413 290.756c0 48.5-39.46 87.95-87.95 87.95s-87.94-39.45-87.94-87.95c0-48.49 39.45-87.94 87.94-87.94s87.95 39.45 87.95 87.94z" fill="#ffe5b3"/><path d="m473.413 290.756c0 48.5-39.46 87.95-87.95 87.95v-175.89c48.49 0 87.95 39.45 87.95 87.94z" fill="#fc9"/><path d="m282.623 452.926v57.08h-282.5v-57.08c0-68.61 63.37-124.42 141.25-124.42 77.89 0 141.25 55.81 141.25 124.42z" fill="#514899"/><path d="m282.623 452.926v57.08h-141.25v-181.5c77.89 0 141.25 55.81 141.25 124.42z" fill="#39326c"/><circle cx="141.373" cy="259.336" fill="#ffe5b3" r="99.17"/><path d="m240.543 259.336c0 54.68-44.49 99.17-99.17 99.17v-198.34c54.68 0 99.17 44.49 99.17 99.17z" fill="#fc9"/><path d="m327.083 99.096c-72.839 72.495-71.862 71.7-71.96 71.6l-72.2-71.55c-36.349-36.382-10.81-99.14 41-99.14 20.306 0 30.326 9.41 31.2 8.89 22.033-13.912 52.122-11.728 71.96 8.11 22.63 22.63 22.63 59.46 0 82.09z" fill="#f87eb8"/><path d="m327.083 99.096c-72.839 72.495-71.862 71.7-71.96 71.6v-161.8c9.17-5.79 19.8-8.89 30.91-8.89 51.222 0 77.762 62.378 41.05 99.09z" fill="#f96192"/></g></svg>