<?xml version="1.0"?>
<svg xmlns="http://www.w3.org/2000/svg" xmlns:xlink="http://www.w3.org/1999/xlink" xmlns:svgjs="http://svgjs.com/svgjs" version="1.1" width="512" height="512" x="0" y="0" viewBox="0 0 511 511" style="enable-background:new 0 0 512 512" xml:space="preserve" class=""><g><g xmlns="http://www.w3.org/2000/svg"><path d="m510.5 230.76v280.24h-510v-79l128.34-287h309.66z" fill="#a5780d" data-original="#00c6cd" style="" class=""/><path d="m510.5 230.76v280.24h-255v-366h183z" fill="#8e670b" data-original="#00b5bc" style="" class=""/><path d="m510.5 145v85.76l-175 201.24h-335v-287z" fill="#f4cd71" data-original="#eef4ff" style="" class=""/><path d="m510.5 145v85.76l-175 201.24h-80v-287z" fill="#f0bc42" data-original="#d9e6fc" style="" class=""/><path d="m495.5 248-160 184v-184z" fill="#ecab13" data-original="#bed9fd" style="" class=""/><path d="m.5 49h510v126h-510z" fill="#d49a11" data-original="#00e6ef" style="" class=""/><path d="m255.5 49h255v126h-255z" fill="#a5780d" data-original="#00c6cd" style="" class=""/><path d="m184.5 0h30v112h-30z" fill="#f4cd71" data-original="#eef4ff" style="" class=""/><path d="m72.5 0h30v112h-30z" fill="#f4cd71" data-original="#eef4ff" style="" class=""/><path d="m296.5 0h30v112h-30z" fill="#f0bc42" data-original="#d9e6fc" style="" class=""/><path d="m408.5 0h30v112h-30z" fill="#f0bc42" data-original="#d9e6fc" style="" class=""/><path d="m209.443 224.819c-20.403-20.4-51.209-22.256-73.421-8.036-22.22-14.227-53.026-12.357-73.422 8.037-22.993 22.994-22.993 60.408.048 83.449l73.53 72.871 73.265-72.919c22.994-22.992 22.994-60.407 0-83.402z" fill="#fd59b5" data-original="#f87eb8" style="" class=""/></g><script/></g></svg>
