<?xml version="1.0"?>
<svg xmlns="http://www.w3.org/2000/svg" xmlns:xlink="http://www.w3.org/1999/xlink" xmlns:svgjs="http://svgjs.com/svgjs" version="1.1" width="512" height="512" x="0" y="0" viewBox="0 0 64 64" style="enable-background:new 0 0 512 512" xml:space="preserve" class=""><g><g xmlns="http://www.w3.org/2000/svg" id="masked-mask-face_mask-shield-human" data-name="masked-mask-face mask-shield-human"><path d="M54,25.37V39c0,.34-.01.67-.03,1A21.846,21.846,0,0,1,48,54.1a22.268,22.268,0,0,1-4.59,3.72,22.053,22.053,0,0,1-23.71-.57A22.328,22.328,0,0,1,16,54.1,21.846,21.846,0,0,1,10.03,40c-.02-.33-.03-.66-.03-1V25.37l.2-.04,13.37-2.82a9.991,9.991,0,0,0,4.34-2.1L32,17l4.09,3.41a9.991,9.991,0,0,0,4.34,2.1L53.8,25.33Z" style="" fill="#f9d0b4" data-original="#ffc477" class=""/><path d="M54,25.37V39c0,.34-.01.67-.03,1A21.846,21.846,0,0,1,48,54.1a22.268,22.268,0,0,1-4.59,3.72A21.886,21.886,0,0,1,32,61q-1.02,0-2.01-.09a21.832,21.832,0,0,0,9.42-3.09A22.268,22.268,0,0,0,44,54.1,21.846,21.846,0,0,0,49.97,40c.02-.33.03-.66.03-1V25.37l-.2-.04L36.43,22.51a9.991,9.991,0,0,1-4.34-2.1L30,18.67,32,17l4.09,3.41a9.991,9.991,0,0,0,4.34,2.1L53.8,25.33Z" style="" fill="#f9d0b4" data-original="#ffa733" class=""/><path d="M58.95,28.05A7,7,0,0,1,54,40h-.03c.02-.33.03-.66.03-1V26A6.958,6.958,0,0,1,58.95,28.05Z" style="" fill="#f9d0b4" data-original="#ffc477" class=""/><path d="M61,33a7,7,0,0,1-7,7h-.03c.02-.33.03-.66.03-1v-.26a7,7,0,0,0,.95-10.69,6.53,6.53,0,0,0-.95-.79V26a7,7,0,0,1,7,7Z" style="" fill="#f9d0b4" data-original="#ffa733" class=""/><path d="M57,20.96V26l-3-.63-.2-.04L40.43,22.51a9.991,9.991,0,0,1-4.34-2.1L32,17l-4.09,3.41a9.991,9.991,0,0,1-4.34,2.1L10.2,25.33l-.2.04L7,26V20.96A18,18,0,0,1,28.53,3.31L32,4l3.47-.69A18,18,0,0,1,57,20.96Z" style="" fill="#b57e5a" data-original="#ffd422" class=""/><path d="M57,20.96V26l-3-.63-.2-.04-.8-.17v-4.2A18,18,0,0,0,37.05,3.07,17.991,17.991,0,0,1,57,20.96Z" style="" fill="#976544" data-original="#ebbf00" class=""/><path d="M48,35V54.1a22.268,22.268,0,0,1-4.59,3.72,22.053,22.053,0,0,1-23.71-.57A22.328,22.328,0,0,1,16,54.1V35l16-2Z" style="" fill="#ddfffb" data-original="#ddfffb" class=""/><path d="M48,35V54.1a22.268,22.268,0,0,1-4.59,3.72A21.886,21.886,0,0,1,32,61q-1.02,0-2.01-.09a21.832,21.832,0,0,0,9.42-3.09A22.268,22.268,0,0,0,44,54.1V35L30,33.25,32,33Z" style="" fill="#00e7f0" data-original="#00e7f0" class=""/><path d="M10,39c0,.34.01.67.03,1H10a7,7,0,1,1,0-14Z" style="" fill="#f9d0b4" data-original="#ffc477" class=""/><path d="M59.66,27.34a8.249,8.249,0,0,0-1.68-1.27A.254.254,0,0,0,58,26V20.96A18.986,18.986,0,0,0,35.27,2.33L32,2.98l-3.27-.65A18.986,18.986,0,0,0,6,20.96V26a.254.254,0,0,0,.02.07,8.249,8.249,0,0,0-1.68,1.27,8,8,0,0,0,4.75,13.6,22.991,22.991,0,0,0,45.82,0,8,8,0,0,0,4.75-13.6ZM9,38.91A6.007,6.007,0,0,1,4,33a6,6,0,0,1,5-5.91Zm6,12.37A20.894,20.894,0,0,1,11,39V28.61l4,6.67Zm32,2.39a20.938,20.938,0,0,1-30,0V35.88l15-1.87,15,1.87Zm.48-19.74L32.12,32.01a.964.964,0,0,0-.24,0L16.52,33.93l-4.74-7.91,11.99-2.53a11.1,11.1,0,0,0,4.78-2.31L32,18.3l3.45,2.88a11.1,11.1,0,0,0,4.78,2.31l11.99,2.53ZM53,39a20.894,20.894,0,0,1-4,12.28v-16l4-6.67ZM40.64,21.53a8.974,8.974,0,0,1-3.91-1.89l-4.09-3.41a1.005,1.005,0,0,0-1.28,0l-4.09,3.41a8.974,8.974,0,0,1-3.91,1.89L8,24.77V20.96A16.992,16.992,0,0,1,28.33,4.29l3.47.69a.9.9,0,0,0,.4,0l3.47-.69A16.992,16.992,0,0,1,56,20.96v3.81ZM55,38.91V27.09A6,6,0,0,1,60,33,6.013,6.013,0,0,1,55,38.91Z" fill="#000000" data-original="#000000" style="" class=""/><rect x="21" y="40" width="22" height="2" fill="#000000" data-original="#000000" style="" class=""/><rect x="21" y="46" width="22" height="2" fill="#000000" data-original="#000000" style="" class=""/><rect x="21" y="52" width="22" height="2" fill="#000000" data-original="#000000" style="" class=""/></g><script/></g></svg>
