<svg width="250" height="27" viewBox="0 0 250 27" fill="none" xmlns="http://www.w3.org/2000/svg">
<path d="M0.8 22.652C0.8 20.924 1.172 19.448 1.916 18.224H2.24C2.216 18.416 2.204 18.608 2.204 18.8C2.204 20.456 2.792 21.908 3.968 23.156C5.168 24.38 6.8 24.992 8.864 24.992C10.472 24.992 11.72 24.608 12.608 23.84C13.52 23.072 13.976 22.1 13.976 20.924C13.976 20.228 13.748 19.604 13.292 19.052C12.86 18.5 12.128 17.888 11.096 17.216L4.832 13.076C2.504 11.516 1.34 9.596 1.34 7.316C1.34 7.076 1.364 6.836 1.412 6.596C1.556 4.7 2.288 3.176 3.608 2.024C4.952 0.871999 6.74 0.295998 8.972 0.295998C10.292 0.295998 11.924 0.415998 13.868 0.655998H16.136L15.668 5.948H15.308C15.308 4.7 14.84 3.704 13.904 2.96C12.992 2.192 11.768 1.808 10.232 1.808C8.36 1.808 7.004 2.384 6.164 3.536C5.732 4.088 5.516 4.64 5.516 5.192C5.516 5.744 5.624 6.212 5.84 6.596C6.176 7.22 6.908 7.892 8.036 8.612L14.912 13.076C17.072 14.492 18.152 16.34 18.152 18.62C18.152 21.164 17.276 23.12 15.524 24.488C13.796 25.832 11.492 26.504 8.612 26.504C6.98 26.504 5.468 26.312 4.076 25.928C2.708 25.52 1.7 24.98 1.052 24.308C0.884 23.852 0.8 23.3 0.8 22.652ZM21.5816 25.64C22.2056 25.64 22.7336 25.424 23.1656 24.992C23.6216 24.536 23.8616 23.996 23.8856 23.372V3.392C23.8616 2.768 23.6216 2.24 23.1656 1.808C22.7336 1.376 22.2056 1.16 21.5816 1.16H21.1136V0.799998H32.0576L32.0216 1.16H31.5896C30.9656 1.16 30.4256 1.376 29.9696 1.808C29.5136 2.24 29.2856 2.768 29.2856 3.392V23.372C29.2856 23.996 29.5136 24.536 29.9696 24.992C30.4256 25.424 30.9656 25.64 31.5896 25.64H32.0216L32.0576 26H21.1136V25.64H21.5816ZM48.2123 2.276V23.408C48.2363 24.032 48.4643 24.56 48.8963 24.992C49.3523 25.424 49.8923 25.64 50.5163 25.64H50.9483L50.9843 26H40.0403V25.64H40.5083C41.1083 25.64 41.6243 25.424 42.0563 24.992C42.5123 24.56 42.7643 24.044 42.8123 23.444V2.276H37.9523C36.8483 2.3 35.9723 2.648 35.3243 3.32C34.6763 3.992 34.3523 4.868 34.3523 5.948V6.38H33.9923V0.115999C34.9763 0.523999 36.3923 0.739999 38.2403 0.763999H52.7483C53.4923 0.763999 54.2963 0.691999 55.1603 0.547999C56.0483 0.403998 56.6603 0.259998 56.9963 0.115999V6.38H56.6363V5.948C56.6363 4.46 56.0723 3.404 54.9443 2.78C54.4163 2.468 53.7803 2.3 53.0363 2.276H48.2123ZM59.4448 25.64C60.0688 25.64 60.5968 25.424 61.0288 24.992C61.4848 24.536 61.7248 23.996 61.7488 23.372V3.392C61.7248 2.768 61.4848 2.24 61.0288 1.808C60.5968 1.376 60.0688 1.16 59.4448 1.16H58.9768V0.799998H69.9208L69.8848 1.16H69.4528C68.8288 1.16 68.2888 1.376 67.8328 1.808C67.3768 2.24 67.1488 2.768 67.1488 3.392V23.372C67.1488 23.996 67.3768 24.536 67.8328 24.992C68.2888 25.424 68.8288 25.64 69.4528 25.64H69.8848L69.9208 26H58.9768V25.64H59.4448ZM90.0356 2.348V12.824H94.7876C95.6756 12.8 96.4076 12.5 96.9836 11.924C97.5596 11.348 97.8476 10.616 97.8476 9.728V9.404H98.2076V17.72H97.8476V17.432C97.8476 16.544 97.5596 15.812 96.9836 15.236C96.4316 14.66 95.7236 14.36 94.8596 14.336H90.0356V23.372C90.0356 23.996 90.2636 24.536 90.7196 24.992C91.1756 25.424 91.7156 25.64 92.3396 25.64H92.7716L92.8076 26H81.8636V25.64H82.3316C82.9556 25.64 83.4836 25.424 83.9156 24.992C84.3716 24.536 84.6116 23.996 84.6356 23.372V3.32C84.6356 2.48 84.2396 1.856 83.4476 1.448C83.1116 1.256 82.7396 1.16 82.3316 1.16H81.8636V0.799998H95.6516C96.3956 0.799998 97.2116 0.727998 98.0996 0.583999C98.9876 0.439999 99.6116 0.295999 99.9716 0.151998V6.236H99.6116V5.876C99.6116 4.82 99.2996 3.98 98.6756 3.356C98.0756 2.708 97.2476 2.372 96.1916 2.348H90.0356ZM125.798 25.64H126.122V26H114.638V25.64H114.962C115.49 25.64 115.874 25.484 116.114 25.172C116.378 24.836 116.51 24.524 116.51 24.236C116.51 23.948 116.45 23.66 116.33 23.372L114.566 18.944H106.142L104.27 23.372C104.15 23.684 104.09 23.984 104.09 24.272C104.09 24.536 104.222 24.836 104.486 25.172C104.75 25.484 105.146 25.64 105.674 25.64H105.962V26H98.2585V25.64H98.5825C99.1345 25.64 99.6865 25.472 100.238 25.136C100.79 24.8 101.246 24.296 101.606 23.624L109.922 4.796C111.05 2.42 111.65 0.847999 111.722 0.079999H112.046L122.738 23.552C123.098 24.248 123.554 24.776 124.106 25.136C124.658 25.472 125.222 25.64 125.798 25.64ZM106.754 17.432H113.954L110.462 8.576L106.754 17.432ZM136.56 2.276V23.408C136.584 24.032 136.812 24.56 137.244 24.992C137.7 25.424 138.24 25.64 138.864 25.64H139.296L139.332 26H128.388V25.64H128.856C129.456 25.64 129.972 25.424 130.404 24.992C130.86 24.56 131.112 24.044 131.16 23.444V2.276H126.3C125.196 2.3 124.32 2.648 123.672 3.32C123.024 3.992 122.7 4.868 122.7 5.948V6.38H122.34V0.115999C123.324 0.523999 124.74 0.739999 126.588 0.763999H141.096C141.84 0.763999 142.644 0.691999 143.508 0.547999C144.396 0.403998 145.008 0.259998 145.344 0.115999V6.38H144.984V5.948C144.984 4.46 144.42 3.404 143.292 2.78C142.764 2.468 142.128 2.3 141.384 2.276H136.56ZM147.793 25.64C148.417 25.64 148.945 25.424 149.377 24.992C149.833 24.536 150.073 23.996 150.097 23.372V3.392C150.073 2.768 149.833 2.24 149.377 1.808C148.945 1.376 148.417 1.16 147.793 1.16H147.325V0.799998H158.269L158.233 1.16H157.801C157.177 1.16 156.637 1.376 156.181 1.808C155.725 2.24 155.497 2.768 155.497 3.392V23.372C155.497 23.996 155.725 24.536 156.181 24.992C156.637 25.424 157.177 25.64 157.801 25.64H158.233L158.269 26H147.325V25.64H147.793ZM193.791 25.64H194.367V26H183.567V25.676H184.107C184.515 25.652 184.863 25.484 185.151 25.172C185.439 24.86 185.559 24.512 185.511 24.128L184.107 11.06L177.339 22.724C176.451 24.212 175.995 25.544 175.971 26.72H175.611L166.359 11.168L164.955 24.128C164.907 24.512 165.027 24.872 165.315 25.208C165.603 25.52 165.951 25.676 166.359 25.676H166.899V26H159.375V25.64H159.951C160.623 25.64 161.199 25.436 161.679 25.028C162.183 24.62 162.483 24.068 162.579 23.372L165.567 0.295998H165.891L177.051 18.656L187.779 0.295998H188.103L191.163 23.372C191.283 24.068 191.583 24.62 192.063 25.028C192.567 25.436 193.143 25.64 193.791 25.64ZM220.58 25.64H220.904V26H209.42V25.64H209.744C210.272 25.64 210.656 25.484 210.896 25.172C211.16 24.836 211.292 24.524 211.292 24.236C211.292 23.948 211.232 23.66 211.112 23.372L209.348 18.944H200.924L199.052 23.372C198.932 23.684 198.872 23.984 198.872 24.272C198.872 24.536 199.004 24.836 199.268 25.172C199.532 25.484 199.928 25.64 200.456 25.64H200.744V26H193.04V25.64H193.364C193.916 25.64 194.468 25.472 195.02 25.136C195.572 24.8 196.028 24.296 196.388 23.624L204.704 4.796C205.832 2.42 206.432 0.847999 206.504 0.079999H206.828L217.52 23.552C217.88 24.248 218.336 24.776 218.888 25.136C219.44 25.472 220.004 25.64 220.58 25.64ZM201.536 17.432H208.736L205.244 8.576L201.536 17.432ZM238.825 25.64C239.449 25.64 239.929 25.484 240.265 25.172C240.817 24.62 241.105 24.032 241.129 23.408V14.228H229.465V23.372C229.465 23.996 229.693 24.536 230.149 24.992C230.605 25.424 231.145 25.64 231.769 25.64H232.201L232.237 26H221.293V25.64H221.761C222.385 25.64 222.913 25.424 223.345 24.992C223.801 24.536 224.041 23.996 224.065 23.372V3.428C224.041 2.804 223.801 2.276 223.345 1.844C222.913 1.388 222.385 1.16 221.761 1.16H221.293V0.799998H232.237L232.201 1.16H231.769C231.145 1.16 230.605 1.388 230.149 1.844C229.693 2.276 229.465 2.804 229.465 3.428V12.68H241.129V3.428C241.105 2.804 240.865 2.276 240.409 1.844C239.977 1.388 239.449 1.16 238.825 1.16H238.357V0.799998H249.301V1.16H248.833C248.209 1.16 247.669 1.388 247.213 1.844C246.757 2.276 246.529 2.804 246.529 3.428V23.372C246.529 23.996 246.757 24.536 247.213 24.992C247.669 25.424 248.209 25.64 248.833 25.64H249.301V26H238.357V25.64H238.825Z" fill="url(#paint0_linear)"/>
<defs>
<linearGradient id="paint0_linear" x1="125" y1="-9" x2="125" y2="39" gradientUnits="userSpaceOnUse">
<stop offset="0.375" stop-color="#DAB226" stop-opacity="0.95"/>
<stop offset="0.494792" stop-color="#FDE9A1"/>
<stop offset="0.692708" stop-color="#D8B022" stop-opacity="0.88"/>
<stop offset="0.692808" stop-color="#D8B022" stop-opacity="0.95"/>
</linearGradient>
</defs>
</svg>
