<svg width="209" height="27" viewBox="0 0 209 27" fill="none" xmlns="http://www.w3.org/2000/svg">
<path d="M27.568 25.64H27.892V26H16.408V25.64H16.732C17.26 25.64 17.644 25.484 17.884 25.172C18.148 24.836 18.28 24.524 18.28 24.236C18.28 23.948 18.22 23.66 18.1 23.372L16.336 18.944H7.912L6.04 23.372C5.92 23.684 5.86 23.984 5.86 24.272C5.86 24.536 5.992 24.836 6.256 25.172C6.52 25.484 6.916 25.64 7.444 25.64H7.732V26H0.028V25.64H0.352C0.904 25.64 1.456 25.472 2.008 25.136C2.56 24.8 3.016 24.296 3.376 23.624L11.692 4.796C12.82 2.42 13.42 0.847999 13.492 0.079999H13.816L24.508 23.552C24.868 24.248 25.324 24.776 25.876 25.136C26.428 25.472 26.992 25.64 27.568 25.64ZM8.524 17.432H15.724L12.232 8.576L8.524 17.432ZM39.6575 26H28.2815V25.64H28.7495C29.6135 25.64 30.2735 25.268 30.7295 24.524C30.9215 24.188 31.0295 23.816 31.0535 23.408V3.392C31.0295 2.768 30.7895 2.24 30.3335 1.808C29.9015 1.376 29.3735 1.16 28.7495 1.16H28.2815V0.799998H38.7215C41.5055 0.799998 43.7135 1.304 45.3455 2.312C47.0015 3.32 47.8415 4.868 47.8655 6.956C47.8415 8.012 47.6135 8.936 47.1815 9.728C46.3895 11.216 45.1415 12.068 43.4375 12.284C45.2855 12.452 46.8095 13.148 48.0095 14.372C49.2095 15.572 49.8095 17.108 49.8095 18.98C49.8095 21.236 48.8975 22.976 47.0735 24.2C45.2735 25.4 42.8015 26 39.6575 26ZM42.1055 7.424C42.0815 4.04 40.5455 2.348 37.4975 2.348H36.4535V24.344H38.1095C38.1335 24.344 38.1575 24.344 38.1815 24.344C39.8375 24.344 41.1575 23.864 42.1415 22.904C43.1255 21.944 43.6175 20.48 43.6175 18.512C43.6175 16.544 43.0655 15.08 41.9615 14.12C40.8575 13.16 39.4295 12.68 37.6775 12.68V12.356C38.9255 12.356 39.9695 11.96 40.8095 11.168C41.6495 10.352 42.0815 9.104 42.1055 7.424ZM65.4667 0.799998C69.7147 0.799998 73.0747 1.928 75.5467 4.184C78.0187 6.44 79.2547 9.512 79.2547 13.4C79.2547 17.288 78.0187 20.36 75.5467 22.616C73.0747 24.872 69.7147 26 65.4667 26H52.3987V25.64H52.8667C53.4907 25.64 54.0187 25.424 54.4507 24.992C54.9067 24.536 55.1467 23.996 55.1707 23.372V3.212C55.1707 2.636 54.9307 2.156 54.4507 1.772C53.9947 1.364 53.4667 1.16 52.8667 1.16H52.3987V0.799998H65.4667ZM64.9987 24.452C66.7267 24.452 68.2147 24.008 69.4627 23.12C70.7347 22.232 71.7067 20.96 72.3787 19.304C73.0507 17.624 73.3867 15.8 73.3867 13.832C73.3867 11.864 73.1827 10.196 72.7747 8.828C72.3907 7.436 71.8387 6.26 71.1187 5.3C69.6307 3.308 67.5907 2.312 64.9987 2.312H60.5707V24.452H64.9987ZM108.612 1.16H108C107.496 1.16 107.064 1.328 106.704 1.664C106.344 1.976 106.152 2.372 106.128 2.852V16.892C106.128 19.844 105.204 22.184 103.356 23.912C101.508 25.64 98.9759 26.504 95.7599 26.504C91.9679 26.504 89.0639 25.664 87.0479 23.984C85.0319 22.28 84.0239 19.928 84.0239 16.928V2.96C83.9999 2.24 83.6759 1.712 83.0519 1.376C82.7639 1.232 82.4519 1.16 82.1159 1.16H81.5399V0.799998H91.9079V1.16H91.3319C90.8039 1.16 90.3599 1.328 89.9999 1.664C89.6399 1.976 89.4479 2.384 89.4239 2.888V16.64C89.4239 19.184 90.0479 21.2 91.2959 22.688C92.5439 24.176 94.2599 24.92 96.4439 24.92C98.6279 24.92 100.356 24.224 101.628 22.832C102.9 21.416 103.548 19.508 103.572 17.108V2.888C103.524 2.192 103.2 1.688 102.6 1.376C102.312 1.232 102 1.16 101.664 1.16H101.088V0.799998H108.612V1.16ZM111.226 25.64C111.85 25.64 112.378 25.424 112.81 24.992C113.266 24.536 113.506 23.996 113.53 23.372V3.428C113.506 2.804 113.266 2.276 112.81 1.844C112.378 1.388 111.85 1.16 111.226 1.16H110.758V0.799998H121.702L121.666 1.16H121.234C120.61 1.16 120.07 1.388 119.614 1.844C119.158 2.276 118.93 2.804 118.93 3.428V24.452H123.646C125.398 24.452 126.862 23.948 128.038 22.94C129.238 21.932 130.126 20.504 130.702 18.656H131.062L129.406 26H110.758V25.64H111.226ZM133.199 25.64C133.823 25.64 134.351 25.424 134.783 24.992C135.239 24.536 135.479 23.996 135.503 23.372V3.428C135.479 2.804 135.239 2.276 134.783 1.844C134.351 1.388 133.823 1.16 133.199 1.16H132.731V0.799998H143.675L143.639 1.16H143.207C142.583 1.16 142.043 1.388 141.587 1.844C141.131 2.276 140.903 2.804 140.903 3.428V24.452H145.619C147.371 24.452 148.835 23.948 150.011 22.94C151.211 21.932 152.099 20.504 152.675 18.656H153.035L151.379 26H132.731V25.64H133.199ZM179.97 25.64H180.294V26H168.81V25.64H169.134C169.662 25.64 170.046 25.484 170.286 25.172C170.55 24.836 170.682 24.524 170.682 24.236C170.682 23.948 170.622 23.66 170.502 23.372L168.738 18.944H160.314L158.442 23.372C158.322 23.684 158.262 23.984 158.262 24.272C158.262 24.536 158.394 24.836 158.658 25.172C158.922 25.484 159.318 25.64 159.846 25.64H160.134V26H152.43V25.64H152.754C153.306 25.64 153.858 25.472 154.41 25.136C154.962 24.8 155.418 24.296 155.778 23.624L164.094 4.796C165.222 2.42 165.822 0.847999 165.894 0.079999H166.218L176.91 23.552C177.27 24.248 177.726 24.776 178.278 25.136C178.83 25.472 179.394 25.64 179.97 25.64ZM160.926 17.432H168.126L164.634 8.576L160.926 17.432ZM198.216 25.64C198.84 25.64 199.32 25.484 199.656 25.172C200.208 24.62 200.496 24.032 200.52 23.408V14.228H188.856V23.372C188.856 23.996 189.084 24.536 189.54 24.992C189.996 25.424 190.536 25.64 191.16 25.64H191.592L191.628 26H180.684V25.64H181.152C181.776 25.64 182.304 25.424 182.736 24.992C183.192 24.536 183.432 23.996 183.456 23.372V3.428C183.432 2.804 183.192 2.276 182.736 1.844C182.304 1.388 181.776 1.16 181.152 1.16H180.684V0.799998H191.628L191.592 1.16H191.16C190.536 1.16 189.996 1.388 189.54 1.844C189.084 2.276 188.856 2.804 188.856 3.428V12.68H200.52V3.428C200.496 2.804 200.256 2.276 199.8 1.844C199.368 1.388 198.84 1.16 198.216 1.16H197.748V0.799998H208.692V1.16H208.224C207.6 1.16 207.06 1.388 206.604 1.844C206.148 2.276 205.92 2.804 205.92 3.428V23.372C205.92 23.996 206.148 24.536 206.604 24.992C207.06 25.424 207.6 25.64 208.224 25.64H208.692V26H197.748V25.64H198.216Z" fill="url(#paint0_linear)"/>
<defs>
<linearGradient id="paint0_linear" x1="106" y1="-9" x2="106" y2="39" gradientUnits="userSpaceOnUse">
<stop offset="0.375" stop-color="#DAB226" stop-opacity="0.95"/>
<stop offset="0.494792" stop-color="#FDE9A1"/>
<stop offset="0.692708" stop-color="#D8B022" stop-opacity="0.88"/>
<stop offset="0.692808" stop-color="#D8B022" stop-opacity="0.95"/>
</linearGradient>
</defs>
</svg>
